<svg width="561" height="47" viewBox="0 0 561 47" fill="none" xmlns="http://www.w3.org/2000/svg">
<path d="M42.376 46H29.832L13.128 20.784V46H0.584V0.879997H13.128L29.832 26.416V0.879997H42.376V46ZM77.7455 46L68.9775 33.264L61.4895 46H47.2175L61.8735 22.896L46.7055 0.879997H61.4895L70.0015 13.296L77.2975 0.879997H91.5695L77.1055 23.6L92.5295 46H77.7455Z" fill="url(#paint0_linear_304_112)"/>
<path d="M149.506 0.879997V46H136.962V21.104L128.45 46H117.954L109.378 20.912V46H96.834V0.879997H112.002L123.33 30.192L134.402 0.879997H149.506ZM190.951 27.632C190.951 28.6133 190.887 29.5947 190.759 30.576H167.015C167.143 32.5387 167.676 34.0107 168.615 34.992C169.596 35.9307 170.833 36.4 172.327 36.4C174.417 36.4 175.911 35.4613 176.807 33.584H190.183C189.628 36.0587 188.54 38.2773 186.919 40.24C185.34 42.16 183.335 43.6747 180.903 44.784C178.471 45.8933 175.783 46.448 172.839 46.448C169.297 46.448 166.14 45.7013 163.367 44.208C160.636 42.7147 158.481 40.5813 156.903 37.808C155.367 35.0347 154.599 31.7707 154.599 28.016C154.599 24.2613 155.367 21.0187 156.903 18.288C158.439 15.5147 160.572 13.3813 163.303 11.888C166.076 10.3947 169.255 9.648 172.839 9.648C176.38 9.648 179.516 10.3733 182.247 11.824C184.977 13.2747 187.111 15.3653 188.647 18.096C190.183 20.784 190.951 23.9627 190.951 27.632ZM178.151 24.496C178.151 22.96 177.639 21.7653 176.615 20.912C175.591 20.016 174.311 19.568 172.775 19.568C171.239 19.568 169.98 19.9947 168.999 20.848C168.017 21.6587 167.377 22.8747 167.079 24.496H178.151ZM194.036 28.016C194.036 24.304 194.697 21.0613 196.02 18.288C197.385 15.5147 199.22 13.3813 201.524 11.888C203.871 10.3947 206.473 9.648 209.332 9.648C211.807 9.648 213.94 10.1387 215.732 11.12C217.524 12.1013 218.911 13.424 219.892 15.088V10.096H232.436V46H219.892V41.008C218.911 42.672 217.503 43.9947 215.668 44.976C213.876 45.9573 211.764 46.448 209.332 46.448C206.473 46.448 203.871 45.7013 201.524 44.208C199.22 42.7147 197.385 40.5813 196.02 37.808C194.697 34.992 194.036 31.728 194.036 28.016ZM219.892 28.016C219.892 25.712 219.252 23.8987 217.972 22.576C216.735 21.2533 215.199 20.592 213.364 20.592C211.487 20.592 209.929 21.2533 208.692 22.576C207.455 23.856 206.836 25.6693 206.836 28.016C206.836 30.32 207.455 32.1547 208.692 33.52C209.929 34.8427 211.487 35.504 213.364 35.504C215.199 35.504 216.735 34.8427 217.972 33.52C219.252 32.1973 219.892 30.3627 219.892 28.016ZM254.88 46.448C251.637 46.448 248.736 45.9147 246.176 44.848C243.659 43.7387 241.653 42.2453 240.16 40.368C238.709 38.448 237.899 36.2933 237.728 33.904H249.888C250.059 35.056 250.592 35.952 251.488 36.592C252.384 37.232 253.493 37.552 254.816 37.552C255.84 37.552 256.651 37.3387 257.248 36.912C257.845 36.4853 258.144 35.9307 258.144 35.248C258.144 34.352 257.653 33.6907 256.672 33.264C255.691 32.8373 254.069 32.368 251.808 31.856C249.248 31.344 247.115 30.768 245.408 30.128C243.701 29.488 242.208 28.4427 240.928 26.992C239.691 25.5413 239.072 23.5787 239.072 21.104C239.072 18.9707 239.648 17.0507 240.8 15.344C241.952 13.5947 243.637 12.208 245.856 11.184C248.117 10.16 250.827 9.648 253.984 9.648C258.677 9.648 262.368 10.8 265.056 13.104C267.744 15.408 269.301 18.4373 269.728 22.192H258.4C258.187 21.04 257.675 20.1653 256.864 19.568C256.096 18.928 255.051 18.608 253.728 18.608C252.704 18.608 251.915 18.8 251.36 19.184C250.848 19.568 250.592 20.1013 250.592 20.784C250.592 21.6373 251.083 22.2987 252.064 22.768C253.045 23.1947 254.624 23.6427 256.8 24.112C259.403 24.6667 261.557 25.2853 263.264 25.968C265.013 26.6507 266.528 27.76 267.808 29.296C269.131 30.7893 269.792 32.8373 269.792 35.44C269.792 37.5307 269.173 39.408 267.936 41.072C266.741 42.736 265.013 44.0587 262.752 45.04C260.533 45.9787 257.909 46.448 254.88 46.448ZM312.695 10.096V46H300.087V40.88C299.02 42.5013 297.548 43.824 295.671 44.848C293.794 45.8293 291.639 46.32 289.207 46.32C285.026 46.32 281.719 44.9547 279.287 42.224C276.898 39.4507 275.703 35.696 275.703 30.96V10.096H288.183V29.36C288.183 31.408 288.716 33.0293 289.783 34.224C290.892 35.376 292.343 35.952 294.135 35.952C295.97 35.952 297.42 35.376 298.487 34.224C299.554 33.0293 300.087 31.408 300.087 29.36V10.096H312.695ZM332.378 16.432C333.786 14.384 335.493 12.7627 337.498 11.568C339.503 10.3733 341.658 9.776 343.962 9.776V23.152H340.442C337.711 23.152 335.685 23.6853 334.362 24.752C333.039 25.8187 332.378 27.6747 332.378 30.32V46H319.834V10.096H332.378V16.432ZM382.763 27.632C382.763 28.6133 382.699 29.5947 382.571 30.576H358.827C358.955 32.5387 359.488 34.0107 360.427 34.992C361.408 35.9307 362.646 36.4 364.139 36.4C366.23 36.4 367.723 35.4613 368.619 33.584H381.995C381.44 36.0587 380.352 38.2773 378.731 40.24C377.152 42.16 375.147 43.6747 372.715 44.784C370.283 45.8933 367.595 46.448 364.651 46.448C361.11 46.448 357.952 45.7013 355.179 44.208C352.448 42.7147 350.294 40.5813 348.715 37.808C347.179 35.0347 346.411 31.7707 346.411 28.016C346.411 24.2613 347.179 21.0187 348.715 18.288C350.251 15.5147 352.384 13.3813 355.115 11.888C357.888 10.3947 361.067 9.648 364.651 9.648C368.192 9.648 371.328 10.3733 374.059 11.824C376.79 13.2747 378.923 15.3653 380.459 18.096C381.995 20.784 382.763 23.9627 382.763 27.632ZM369.963 24.496C369.963 22.96 369.451 21.7653 368.427 20.912C367.403 20.016 366.123 19.568 364.587 19.568C363.051 19.568 361.792 19.9947 360.811 20.848C359.83 21.6587 359.19 22.8747 358.891 24.496H369.963ZM434.809 9.776C439.331 9.776 442.873 11.1413 445.433 13.872C448.035 16.6027 449.337 20.336 449.337 25.072V46H436.793V26.736C436.793 24.816 436.259 23.3227 435.193 22.256C434.126 21.1893 432.675 20.656 430.841 20.656C429.006 20.656 427.555 21.1893 426.489 22.256C425.422 23.3227 424.889 24.816 424.889 26.736V46H412.345V26.736C412.345 24.816 411.811 23.3227 410.745 22.256C409.721 21.1893 408.291 20.656 406.457 20.656C404.579 20.656 403.107 21.1893 402.041 22.256C400.974 23.3227 400.441 24.816 400.441 26.736V46H387.897V10.096H400.441V14.832C401.55 13.296 402.979 12.08 404.729 11.184C406.521 10.2453 408.569 9.776 410.873 9.776C413.518 9.776 415.865 10.352 417.913 11.504C420.003 12.656 421.646 14.2773 422.841 16.368C424.121 14.4053 425.806 12.8267 427.897 11.632C429.987 10.3947 432.291 9.776 434.809 9.776ZM490.513 27.632C490.513 28.6133 490.449 29.5947 490.321 30.576H466.577C466.705 32.5387 467.238 34.0107 468.177 34.992C469.158 35.9307 470.396 36.4 471.889 36.4C473.98 36.4 475.473 35.4613 476.369 33.584H489.745C489.19 36.0587 488.102 38.2773 486.481 40.24C484.902 42.16 482.897 43.6747 480.465 44.784C478.033 45.8933 475.345 46.448 472.401 46.448C468.86 46.448 465.702 45.7013 462.929 44.208C460.198 42.7147 458.044 40.5813 456.465 37.808C454.929 35.0347 454.161 31.7707 454.161 28.016C454.161 24.2613 454.929 21.0187 456.465 18.288C458.001 15.5147 460.134 13.3813 462.865 11.888C465.638 10.3947 468.817 9.648 472.401 9.648C475.942 9.648 479.078 10.3733 481.809 11.824C484.54 13.2747 486.673 15.3653 488.209 18.096C489.745 20.784 490.513 23.9627 490.513 27.632ZM477.713 24.496C477.713 22.96 477.201 21.7653 476.177 20.912C475.153 20.016 473.873 19.568 472.337 19.568C470.801 19.568 469.542 19.9947 468.561 20.848C467.58 21.6587 466.94 22.8747 466.641 24.496H477.713ZM519.135 9.776C523.273 9.776 526.559 11.1627 528.991 13.936C531.423 16.6667 532.639 20.3787 532.639 25.072V46H520.095V26.736C520.095 24.688 519.561 23.088 518.495 21.936C517.428 20.7413 515.999 20.144 514.207 20.144C512.329 20.144 510.857 20.7413 509.791 21.936C508.724 23.088 508.191 24.688 508.191 26.736V46H495.647V10.096H508.191V15.216C509.3 13.5947 510.793 12.2933 512.671 11.312C514.548 10.288 516.703 9.776 519.135 9.776ZM560.706 35.312V46H555.266C546.092 46 541.506 41.456 541.506 32.368V20.528H537.09V10.096H541.506V1.392H554.114V10.096H560.642V20.528H554.114V32.56C554.114 33.5413 554.327 34.2453 554.753 34.672C555.223 35.0987 555.991 35.312 557.058 35.312H560.706Z" fill="url(#paint1_linear_304_112)"/>
<defs>
<linearGradient id="paint0_linear_304_112" x1="280" y1="-24" x2="280" y2="72" gradientUnits="userSpaceOnUse">
<stop stop-color="#0066FF"/>
<stop offset="1" stop-color="#0D57C6"/>
</linearGradient>
<linearGradient id="paint1_linear_304_112" x1="280" y1="-24" x2="280" y2="72" gradientUnits="userSpaceOnUse">
<stop stop-color="#003380"/>
<stop offset="1" stop-color="#00398E"/>
</linearGradient>
</defs>
</svg>
